<?xml version="1.0" encoding="iso-8859-1"?>
<!-- Generator: Adobe Illustrator 19.0.0, SVG Export Plug-In . SVG Version: 6.00 Build 0)  -->
<svg version="1.1" id="Layer_1" xmlns="http://www.w3.org/2000/svg" xmlns:xlink="http://www.w3.org/1999/xlink" x="0px" y="0px"
	 viewBox="0 0 512 512" style="enable-background:new 0 0 512 512;" xml:space="preserve">
<g>
	<g>
		<path d="M239.654,357.276h-92.059c-4.456,0-8.066,3.61-8.066,8.066s3.61,8.066,8.066,8.066h92.059c4.456,0,8.066-3.61,8.066-8.066
			S244.11,357.276,239.654,357.276z"/>
	</g>
</g>
<g>
	<g>
		<path d="M119.096,357.276h-16.184c-4.456,0-8.066,3.61-8.066,8.066s3.61,8.066,8.066,8.066h16.184c4.456,0,8.066-3.61,8.066-8.066
			S123.552,357.276,119.096,357.276z"/>
	</g>
</g>
<g>
	<g>
		<path d="M193.898,312.705h-90.985c-4.456,0-8.066,3.61-8.066,8.066s3.61,8.066,8.066,8.066h90.985c4.456,0,8.066-3.61,8.066-8.066
			S198.353,312.705,193.898,312.705z"/>
	</g>
</g>
<g>
	<g>
		<path d="M239.654,312.705h-16.183c-4.456,0-8.066,3.61-8.066,8.066s3.61,8.066,8.066,8.066h16.184c4.456,0,8.066-3.61,8.066-8.066
			S244.11,312.705,239.654,312.705z"/>
	</g>
</g>
<g>
	<g>
		<path d="M193.898,401.846h-90.985c-4.456,0-8.066,3.61-8.066,8.066s3.61,8.066,8.066,8.066h90.985c4.456,0,8.066-3.61,8.066-8.066
			S198.353,401.846,193.898,401.846z"/>
	</g>
</g>
<g>
	<g>
		<path d="M239.654,401.846h-16.183c-4.456,0-8.066,3.61-8.066,8.066s3.61,8.066,8.066,8.066h16.184c4.456,0,8.066-3.61,8.066-8.066
			S244.11,401.846,239.654,401.846z"/>
	</g>
</g>
<g>
	<g>
		<path d="M398.915,322.276c-0.182-0.226-0.375-0.446-0.586-0.656c-0.21-0.21-0.43-0.403-0.656-0.586
			c-10.786-10.477-25.485-16.948-41.674-16.948c-33.007,0-59.862,26.854-59.862,59.862c0,33.008,26.854,59.863,59.862,59.863
			s59.862-26.854,59.862-59.863C415.861,347.76,409.392,333.062,398.915,322.276z M355.999,407.678
			c-24.113,0-43.73-19.618-43.73-43.731s19.617-43.73,43.73-43.73c9.149,0,17.646,2.828,24.674,7.651l-12.501,12.5
			c-3.649-1.892-7.786-2.967-12.172-2.967c-14.637,0-26.547,11.909-26.547,26.547c0,14.638,11.909,26.547,26.547,26.547
			c14.638,0,26.546-11.909,26.546-26.547c0-4.386-1.075-8.523-2.967-12.171l12.501-12.501c4.82,7.028,7.649,15.524,7.649,24.672
			C399.729,388.061,380.112,407.678,355.999,407.678z M366.414,363.948c0,5.743-4.672,10.415-10.414,10.415
			c-5.743,0-10.415-4.672-10.415-10.415c0-5.743,4.672-10.415,10.415-10.415C361.742,353.534,366.414,358.205,366.414,363.948z"/>
	</g>
</g>
<g>
	<g>
		<path d="M471.65,266.42c4.456,0,8.066-3.61,8.066-8.066v-33.941c0-22.47-18.282-40.751-40.755-40.751h-9.507L144.543,38.804
			c1.049-3.006,1.625-6.231,1.625-9.59C146.169,13.106,133.064,0,116.956,0c-16.107,0-29.213,13.106-29.213,29.214
			c0,16.107,13.105,29.211,29.212,29.211c6.845,0,13.144-2.374,18.13-6.331l258.773,131.569H176.352V171.77
			c0-18.578-15.116-33.692-33.694-33.692h-16.991c-18.579,0-33.694,15.115-33.694,33.692v11.893H73.04
			c-22.473,0-40.755,18.281-40.755,40.751v213.731c0,22.47,18.282,40.751,40.755,40.751h11.591v25.039
			c0,4.456,3.61,8.066,8.066,8.066h74.454c4.456,0,8.066-3.61,8.066-8.066v-25.039h161.567v25.039c0,4.456,3.61,8.066,8.066,8.066
			h74.454c4.456,0,8.066-3.61,8.066-8.066v-25.039h11.591c22.473,0,40.755-18.281,40.755-40.751v-152.9
			c0-4.456-3.61-8.066-8.066-8.066s-8.066,3.61-8.066,8.066v152.901c0,13.575-11.046,24.619-24.623,24.619h-19.657h-74.454H167.151
			H92.697H73.04c-13.577,0-24.623-11.044-24.623-24.619V224.413c0-13.575,11.046-24.619,24.623-24.619h26.999h68.248h259.191
			c0.012,0,0.025,0.002,0.037,0.002c0.011,0,0.02-0.002,0.031-0.002h11.416c13.577,0,24.623,11.044,24.623,24.619v33.941
			C463.583,262.808,467.195,266.42,471.65,266.42z M116.955,42.293c-7.212,0-13.08-5.867-13.08-13.079
			c0-7.213,5.868-13.082,13.08-13.082c7.213,0,13.081,5.869,13.081,13.082C130.036,36.426,124.168,42.293,116.955,42.293z
			 M352.915,478.895h58.322v16.973h-58.322V478.895z M100.763,478.895h58.322v16.973h-58.322V478.895z M160.22,183.662h-52.116
			V171.77c0-9.682,7.878-17.56,17.562-17.56h16.991c9.685,0,17.562,7.878,17.562,17.56V183.662z"/>
	</g>
</g>
<g>
	<g>
		<path d="M415.393,251.788H194.839c-3.509-12.197-14.761-21.148-28.071-21.148c-13.31,0-24.562,8.951-28.072,21.148h-35.783
			c-4.456,0-8.066,3.61-8.066,8.066s3.61,8.066,8.066,8.066h35.784c3.51,12.195,14.762,21.145,28.071,21.145
			c13.309,0,24.56-8.95,28.071-21.145h220.554c4.455,0,8.066-3.61,8.066-8.066S419.848,251.788,415.393,251.788z M166.768,272.933
			c-7.213,0-13.081-5.867-13.081-13.079c0-7.213,5.868-13.082,13.081-13.082c7.212,0,13.08,5.869,13.08,13.082
			C179.848,267.066,173.98,272.933,166.768,272.933z"/>
	</g>
</g>
<g>
</g>
<g>
</g>
<g>
</g>
<g>
</g>
<g>
</g>
<g>
</g>
<g>
</g>
<g>
</g>
<g>
</g>
<g>
</g>
<g>
</g>
<g>
</g>
<g>
</g>
<g>
</g>
<g>
</g>
</svg>
